<svg xmlns="http://www.w3.org/2000/svg" viewBox="0 0 750 500"><g id="freepik--Floor--inject-4"><path d="M710,444.08c0,.15-150,.26-334.94.26s-335-.11-335-.26,149.94-.26,335-.26S710,443.94,710,444.08Z" style="fill:#263238"></path></g><g id="freepik--Device--inject-4"><path d="M324.16,444.08l-132.92-.61a29,29,0,0,1-28.82-29.08l1.41-333.23a29,29,0,0,1,29.09-28.83l132.92.61A29,29,0,0,1,354.66,82l-1.41,333.23A29,29,0,0,1,324.16,444.08Z" style="fill:#455a64"></path><path d="M325.65,64.44l-25.77-.12a6.41,6.41,0,0,0-6.29,6.51l0,4.68A6.39,6.39,0,0,1,287.29,82l-50.24-.23a6.42,6.42,0,0,1-6.23-6.57l0-4.68A6.41,6.41,0,0,0,224.61,64l-9.06,0L193,63.83A20.28,20.28,0,0,0,172.62,84l-1.37,325.26a20.28,20.28,0,0,0,20.18,20.37l132.66.61a20.28,20.28,0,0,0,20.37-20.19L345.83,84.8A20.27,20.27,0,0,0,325.65,64.44Z" style="fill:#fafafa"></path><polygon points="172.46 123.05 194.2 123.05 213.6 142.46 193.43 162.63 172.69 141.88 172.46 123.05" style="fill:#ebebeb"></polygon><polygon points="218.03 133.94 207.13 123.05 231.65 123.05 218.03 133.94" style="fill:#ebebeb"></polygon><path d="M227.56,142.84l19.09-19.09h66.7s10.21,45.6-30,74.88Z" style="fill:#ebebeb"></path><polygon points="219.39 148.92 198.97 169.35 255.48 225.86 275.9 204.75 219.39 148.92" style="fill:#ebebeb"></polygon><polygon points="172.21 180.93 185.01 167.65 172.46 155.1 172.21 180.93" style="fill:#ebebeb"></polygon><polygon points="192.67 175.48 173.01 195.14 173.01 222.46 213.6 263.99 247.99 231.99 192.67 175.48" style="fill:#ebebeb"></polygon><path d="M291,204.36s42.12-30.88,28.5-80.61h26.19l-.32,140.36Z" style="fill:#ebebeb"></path><polygon points="283.08 212.46 262.72 233.72 325.16 296.17 344.26 275.93 283.08 212.46" style="fill:#ebebeb"></polygon><polygon points="254.21 239.54 222.2 271.32 286.22 334.89 318.17 304 254.21 239.54" style="fill:#ebebeb"></polygon><polygon points="237.43 398.77 286.37 348.05 332.92 395.5 237.43 398.77" style="fill:#ebebeb"></polygon><path d="M294,341.5,345,291c0,2.24-.44,104.71-.44,104.71Z" style="fill:#ebebeb"></path><polygon points="250.37 313.14 279.28 342.05 222.2 400.95 195.83 369.32 250.37 313.14" style="fill:#ebebeb"></polygon><path d="M172.26,373.42c2.73-.27,72.64-65.74,72.64-65.74l-72.64-75.27Z" style="fill:#ebebeb"></path><polyline points="171.25 388.34 188.08 373.42 211.39 400.95 171.25 400.95 171.25 390.42" style="fill:#ebebeb"></polyline><path d="M193,103.23a41.85,41.85,0,0,1-5-4.34h0c0-.76,0-.21,0-.38h0l0,0,.07-.06.12-.11.25-.23.48-.45.91-.84,1.57-1.4A7.66,7.66,0,0,1,193,94.17a7,7,0,0,1-1.28,1.46l-1.5,1.48-.89.86-.48.46-.24.23-.13.11-.06.06,0,0h0v-.38h0A42.46,42.46,0,0,1,193,103.23Z" style="fill:#263238"></path><path d="M331.25,95.6a1.09,1.09,0,1,1-1.08-1.08A1.08,1.08,0,0,1,331.25,95.6Z" style="fill:#263238"></path><path d="M330.94,98.57a1.09,1.09,0,1,1-1.54,0A1.1,1.1,0,0,1,330.94,98.57Z" style="fill:#263238"></path><path d="M331.25,103.07a1.09,1.09,0,0,1-2.17,0,1.09,1.09,0,1,1,2.17,0Z" style="fill:#263238"></path><rect x="237.61" y="100.03" width="46.78" height="3.9" style="fill:#263238"></rect><path d="M279.3,170c0-18.22-19.14-29.76-38.66-20.63a22.16,22.16,0,0,0-10.28,9.85c-4.91,9.51-2.74,20.37,1.71,29.39l15.2,38.51a6.55,6.55,0,0,0,12.2,0l14.89-38.71C279.52,176.61,279.3,170,279.3,170ZM261,185.9c-13.12,7.63-26.42-6.47-19.23-20.39a11,11,0,0,1,4.17-4.42c13.13-7.63,26.43,6.47,19.23,20.39A10.91,10.91,0,0,1,261,185.9Z" style="fill:#FF3500"></path></g><g id="freepik--Car--inject-4"><rect x="122.25" y="309.12" width="554.82" height="81.41" style="fill:#FF3500"></rect><g style="opacity:0.5"><rect x="122.25" y="309.12" width="554.82" height="81.41"></rect></g><circle cx="196.8" cy="389.98" r="53.5" transform="translate(-25.73 14.09) rotate(-3.85)" style="fill:#263238"></circle><path d="M143.32,389.07c0,.05,0,.1,0,.14a53.5,53.5,0,1,0,107,1.55c0-.05,0-.1,0-.14Z" style="fill:#263238"></path><path d="M159.25,389.44a37.56,37.56,0,1,0,38.09-37A37.56,37.56,0,0,0,159.25,389.44Z" style="fill:#fafafa"></path><path d="M197.34,352.43a37.55,37.55,0,0,0-38.09,37l75.11,1.09A37.56,37.56,0,0,0,197.34,352.43Z" style="fill:#e0e0e0"></path><path d="M173.93,389.65a22.88,22.88,0,1,0,23.2-22.54A22.87,22.87,0,0,0,173.93,389.65Z" style="fill:#263238"></path><circle cx="605.9" cy="389.98" r="53.5" transform="translate(-21.54 35.69) rotate(-3.32)" style="fill:#263238"></circle><path d="M552.42,389.07c0,.05,0,.1,0,.14a53.5,53.5,0,1,0,107,1.55c0-.05,0-.1,0-.14Z" style="fill:#263238"></path><path d="M568.35,389.44a37.56,37.56,0,1,0,38.09-37A37.56,37.56,0,0,0,568.35,389.44Z" style="fill:#fafafa"></path><path d="M606.44,352.43a37.55,37.55,0,0,0-38.09,37l75.11,1.09A37.56,37.56,0,0,0,606.44,352.43Z" style="fill:#e0e0e0"></path><path d="M583,389.65a22.88,22.88,0,1,0,23.2-22.54A22.87,22.87,0,0,0,583,389.65Z" style="fill:#263238"></path><path d="M266.93,263.32s-78.78,5.81-108,12.36c-20.58,4.61-60.26,12.58-59.78,37.54l3.15,17.9S87.59,337.84,87.59,355,84,398.76,118.36,399.83c5.66.17,16.41,0,16.41,0s-6.59-73.18,60.63-75.32c68.39-2.18,63.85,74.65,63.85,74.65H544.68s-11.72-74.85,61.9-75S669,399.65,669,399.65s27.08,2.34,39.68-20.42,9.33-39,9.33-39l-.42-14.39a9.32,9.32,0,0,0-9-9h0s4.92-36.22-2.63-42.49-48.92-44.1-48.92-44.1l2-1.23a4.64,4.64,0,0,0-1-8.32c-15.71-5.4-46.77-16.09-54.07-18.64a13.14,13.14,0,0,0-3.39-.72c-4.36-.33-16.7-1.11-39.35-1.35-27.59-.3-137.13,0-137.13,0s-37.7,3.1-58.7,12.34C343.38,222.05,266.93,263.32,266.93,263.32Z" style="fill:#FF3500"></path><g style="opacity:0.4"><path d="M107.57,353c-2.86-.58-7.24-.63-9.42,1.3-1.62,1.44-2.05,3.77-2.29,5.92a25.16,25.16,0,0,0,.2,8.87,10.82,10.82,0,0,0,5,7.07c2.62,1.42,6.2,1.19,8.23-1,1.86-2,2.07-5,2-7.67-.07-3.86.24-7.13-.47-10.92a5.26,5.26,0,0,0-1-2.21,3,3,0,0,0-2.28-1.37"></path></g><path d="M102.32,331.12c8.36,0,16.47-.46,24.82-1a4,4,0,0,0,2.54-.77,4.06,4.06,0,0,0,.87-3c0-4.48-.18-9.58-3.58-12.5-2.08-1.78-4.93-2.34-7.66-2.59a49.33,49.33,0,0,0-20.14,2Z" style="fill:#fafafa"></path><path d="M276,396.87s0-.24-.06-.72-.08-1.19-.14-2.1c-.1-1.86-.25-4.57-.44-8.07s-.43-7.79-.93-12.75a100.8,100.8,0,0,0-2.95-16.63,75.75,75.75,0,0,0-8.05-18.75,59,59,0,0,0-15.57-17.36c-13.49-9.6-31.72-15-50.79-15.26S159.76,311,146.6,321.11a74,74,0,0,0-16.37,16.71,78.66,78.66,0,0,0-9.58,18,72.89,72.89,0,0,0-4.05,16.37,68.63,68.63,0,0,0-.49,12.73,63.7,63.7,0,0,0,1,8c.16.89.29,1.58.37,2.06s.11.71.11.71-.06-.23-.16-.69L117,393a58.35,58.35,0,0,1-1.08-8,67.41,67.41,0,0,1,.4-12.78,72.9,72.9,0,0,1,4-16.46,79,79,0,0,1,9.58-18.15,74,74,0,0,1,16.44-16.84c13.22-10.16,31.5-16.25,50.72-16s37.48,5.7,51.08,15.39a59.4,59.4,0,0,1,15.65,17.52,75.52,75.52,0,0,1,8,18.89,99.05,99.05,0,0,1,2.89,16.7c.47,5,.68,9.26.84,12.76s.27,6.22.35,8.08c0,.91.06,1.61.08,2.1S276,396.87,276,396.87Z" style="fill:#fff"></path><path d="M279,398.11l0-.6-.06-1.77c-.05-1.58-.12-3.89-.22-6.91-.17-6.07-.42-14.94-.74-26.23s-.69-25-1.12-40.7c-.11-3.93-.21-8-.33-12.15a41.24,41.24,0,0,1,.28-6.35l.45-3.22.66-3.23a65.4,65.4,0,0,1,4.45-12.81A64.52,64.52,0,0,1,289.67,272l0,0,0,0,49.43-31.14,13.35-8.4a104.88,104.88,0,0,1,14.13-7.89A145.22,145.22,0,0,1,382,218.36c2.62-.92,5.31-1.67,8-2.47s5.43-1.46,8.21-2a187.26,187.26,0,0,1,31.85-4,301.85,301.85,0,0,1,30.85.1l.29,0-.07.29-13.28,59.41v0l0,0a65.6,65.6,0,0,0-6,12.77,34.86,34.86,0,0,0-2,13.2c.34,4.39.46,8.69.57,12.86s.16,8.21.24,12.14c.23,15.7.29,29.39.33,40.67s0,20.15,0,26.21c0,3,0,5.33,0,6.91,0,.77,0,1.36,0,1.77s0,.6,0,.6,0-.21,0-.6,0-1,0-1.77c0-1.58,0-3.89,0-6.91,0-6.06-.09-14.93-.16-26.2s-.17-25-.44-40.68q-.12-5.88-.26-12.13c-.12-4.17-.24-8.45-.59-12.84a35.22,35.22,0,0,1,2-13.37,65.08,65.08,0,0,1,6-12.87l0,.07c4.07-18.29,8.52-38.25,13.23-59.42l.23.3a300.56,300.56,0,0,0-30.78-.08,185.2,185.2,0,0,0-31.77,4c-2.77.55-5.47,1.32-8.18,2s-5.36,1.55-8,2.46A145,145,0,0,0,366.85,225a104.27,104.27,0,0,0-14.06,7.84l-13.36,8.4L290,272.31l0-.05a63.63,63.63,0,0,0-7.28,12.07,64.35,64.35,0,0,0-4.44,12.72c-2.25,8.57-1.12,17-1.1,24.85l1,40.7c.27,11.28.48,20.16.62,26.22.07,3,.11,5.34.15,6.92q0,1.15,0,1.77C279,397.91,279,398.11,279,398.11Z" style="fill:#263238"></path><path d="M460.55,211.64l.47,0,1.37-.05,5.31-.13,19.69-.38,66.38-1.14h.13l.08.1,9.3,11.39C572.7,233,581.68,244,589.84,254l3,3.7a21.93,21.93,0,0,1,2.49,4,20.79,20.79,0,0,1,.37,16.88l-3,7-9.18,21.24L581,312.58l-.67,1.5c-.15.33-.24.5-.24.5s.06-.18.19-.52.36-.87.62-1.52c.57-1.34,1.38-3.3,2.43-5.8l9-21.3c1.72-4.52,4.75-9.28,4.54-15.08a20.42,20.42,0,0,0-2-8.51,21.25,21.25,0,0,0-2.44-3.89l-3-3.7-26.59-32.54-9.29-11.39.2.1-66.39,1-19.69.23-5.31,0H461Z" style="fill:#263238"></path><path d="M427,299.92s.28,0,.79-.12a5.56,5.56,0,0,0,2.1-.84,5.31,5.31,0,0,0,2.14-2.78,6,6,0,0,0,.28-2.2,5.48,5.48,0,0,0-.62-2.38,5.31,5.31,0,0,0-4.61-2.81l-6.74,0-15.45,0a5.2,5.2,0,0,0-3.52,1.38,5.25,5.25,0,0,0-1.68,3.27,6,6,0,0,0,.64,3.53,5.32,5.32,0,0,0,2.56,2.27,8.13,8.13,0,0,0,3.33.41h3.27l5.88,0,8.51.08,2.31.05a4.29,4.29,0,0,1,.81.06,7.37,7.37,0,0,1-.81.05l-2.31,0-8.51.08-5.88,0h-3.27c-.57,0-1.12,0-1.73,0a5.55,5.55,0,0,1-1.78-.41,5.75,5.75,0,0,1-2.81-2.47,6.31,6.31,0,0,1-.71-3.83,5.75,5.75,0,0,1,5.7-5.11l15.45,0,6.75,0a5.67,5.67,0,0,1,4.92,3.07,5.81,5.81,0,0,1,.63,2.54,6.35,6.35,0,0,1-.33,2.3,5.55,5.55,0,0,1-2.31,2.86,5.13,5.13,0,0,1-2.19.77A3.55,3.55,0,0,1,427,299.92Z" style="fill:#263238"></path><path d="M575,299.92s.28,0,.79-.12a5.56,5.56,0,0,0,2.1-.84,5.31,5.31,0,0,0,2.14-2.78,6,6,0,0,0,.28-2.2,5.48,5.48,0,0,0-.62-2.38,5.31,5.31,0,0,0-4.61-2.81l-6.74,0-15.45,0a5.2,5.2,0,0,0-3.52,1.38,5.25,5.25,0,0,0-1.68,3.27,6,6,0,0,0,.64,3.53,5.32,5.32,0,0,0,2.56,2.27,8.13,8.13,0,0,0,3.33.41h3.27l5.88,0,8.51.08,2.31.05a4.29,4.29,0,0,1,.81.06,7.37,7.37,0,0,1-.81.05l-2.31,0-8.51.08-5.88,0h-3.27c-.57,0-1.12,0-1.73,0a5.55,5.55,0,0,1-1.78-.41,5.75,5.75,0,0,1-2.81-2.47,6.31,6.31,0,0,1-.71-3.83,5.75,5.75,0,0,1,5.7-5.11l15.45,0,6.75,0a5.67,5.67,0,0,1,4.92,3.07,5.81,5.81,0,0,1,.63,2.54,6.35,6.35,0,0,1-.33,2.3,5.55,5.55,0,0,1-2.31,2.86,5.13,5.13,0,0,1-2.19.77A3.55,3.55,0,0,1,575,299.92Z" style="fill:#263238"></path><path d="M704.69,275.78h-29.6a10.93,10.93,0,0,0-9.67,5.83h0a10.94,10.94,0,0,0-.32,9.49l11.6,26.37,29.64-.29S712.65,283.75,704.69,275.78Z" style="fill:#fafafa"></path><path d="M293.6,272.05l152.73-2.82,99.4-1.82,32.78-18.93A5.09,5.09,0,0,0,580,241l-20.41-26.81a11.34,11.34,0,0,0-8.94-4.48l-111.18-.9s-41.86-2.44-74.85,16C329.93,244.28,293.6,272.05,293.6,272.05Z" style="fill:#263238"></path><path d="M363.59,211.58s7.66,3.49,2.68,6.72-82.36,52-82.36,52l-17.79-8.05C297.63,244.72,329.45,227.67,363.59,211.58Z" style="fill:#455a64"></path><path d="M286.41,271.54l-.48.12-1.41.31-5.43,1.12c-4.72.94-11.56,2.26-20,3.72-17,2.92-40.52,6.32-66.69,8.58-6.55.57-13,1-19.12,1.44s-12.14.79-17.8,1.3c-11.33,1-21.47,2.64-29.71,5.09A83.67,83.67,0,0,0,107,301c-2.13,1.12-3.65,2.22-4.72,2.88l-1.22.77-.43.25a4.84,4.84,0,0,1,.4-.29l1.19-.82c1.06-.69,2.56-1.82,4.68-3a81.59,81.59,0,0,1,18.72-8c8.26-2.51,18.43-4.2,29.77-5.21,5.67-.54,11.63-.92,17.81-1.33s12.57-.89,19.11-1.46c26.16-2.26,49.71-5.6,66.68-8.43,8.49-1.41,15.33-2.67,20.06-3.55l5.45-1,1.42-.26Z" style="fill:#263238"></path><path d="M716.52,339.93c0,.15-10.18.26-22.73.26s-22.74-.11-22.74-.26,10.18-.26,22.74-.26S716.52,339.79,716.52,339.93Z" style="fill:#263238"></path><path d="M530.29,365.91c0,.15-57.46.26-128.33.26s-128.34-.11-128.34-.26,57.45-.26,128.34-.26S530.29,365.77,530.29,365.91Z" style="fill:#263238"></path><path d="M128,340.79c0,.15-8.13.26-18.15.26s-18.15-.11-18.15-.26,8.13-.26,18.15-.26S128,340.65,128,340.79Z" style="fill:#263238"></path><path d="M656.27,229.21s-6.82,7.63-4.14,13.23,30.39,25.22,30.39,25.22l20.11,3.77Z" style="fill:#455a64"></path><polygon points="465.07 215.54 460.55 264.38 541.47 262.07 574.08 243.11 552.97 215.54 465.07 215.54" style="fill:#455a64"></polygon><path d="M312.76,266.88s48.82-35.26,68.08-42.27c18.59-6.76,28.28-8.46,45.74-9,16.69-.48,26.86,0,26.86,0l-12.9,49.65Z" style="fill:#455a64"></path><path d="M305.62,267h0a8.57,8.57,0,0,1,4.36-7.46l11.22-6.3a21.31,21.31,0,0,1,10.47-2.74h0a21.57,21.57,0,0,1,6.65,1.06,12.16,12.16,0,0,1,8.18,11.17h0a12.35,12.35,0,0,1-12.35,12.82h-20A8.55,8.55,0,0,1,305.62,267Z" style="fill:#FF3500"></path><path d="M305.62,267s0,.38.13,1.08a8.49,8.49,0,0,0,1,2.93,8.8,8.8,0,0,0,3.44,3.39,8.46,8.46,0,0,0,2.88.9,32.25,32.25,0,0,0,3.45.07l17.11-.06a12.83,12.83,0,0,0,4.76-.78,12.16,12.16,0,0,0,7.08-7,12.45,12.45,0,0,0,.75-5.29,12.11,12.11,0,0,0-5.05-8.95,12.88,12.88,0,0,0-4.63-2,21.23,21.23,0,0,0-13.62,1.31c-1.29.58-2.47,1.31-3.64,1.94l-3.34,1.86-5.75,3.18a8.61,8.61,0,0,0-3.44,3.39,8.77,8.77,0,0,0-1,2.93c-.1.7-.09,1.08-.12,1.08a5.39,5.39,0,0,1,0-1.1,8.27,8.27,0,0,1,.92-3,8.64,8.64,0,0,1,3.47-3.54l5.71-3.25,3.32-1.89c1.16-.64,2.34-1.38,3.66-2a21.5,21.5,0,0,1,13.91-1.4,13.25,13.25,0,0,1,4.81,2,12.6,12.6,0,0,1,5.28,9.33,12.87,12.87,0,0,1-.78,5.52,12.64,12.64,0,0,1-7.4,7.3,13.44,13.44,0,0,1-4.93.79l-17.11-.05a33,33,0,0,1-3.49-.11,8.65,8.65,0,0,1-3-1,8.86,8.86,0,0,1-3.48-3.54,8.41,8.41,0,0,1-.91-3A6.54,6.54,0,0,1,305.62,267Z" style="fill:#263238"></path><path d="M681.74,397.32s0-.23,0-.69.08-1.15.14-2,.16-2,.22-3.3.1-2.82.15-4.51,0-3.59,0-5.65-.15-4.31-.43-6.71a86.58,86.58,0,0,0-2.89-16.08,72.65,72.65,0,0,0-3.19-9,58.58,58.58,0,0,0-4.82-9.08A61.79,61.79,0,0,0,655.28,324a74,74,0,0,0-22.42-11.06c-8.34-2.55-17.42-3.48-26.66-3.55a87.83,87.83,0,0,0-26.6,3.87,74.88,74.88,0,0,0-11.84,4.89,67.92,67.92,0,0,0-10.28,6.72,85.26,85.26,0,0,0-15.84,16.24,62.5,62.5,0,0,0-5.26,8.84,85.89,85.89,0,0,0-3.64,8.79,104.91,104.91,0,0,0-5.78,28c-.16,3.39-.14,6-.05,7.82.05.88.09,1.55.11,2s0,.69,0,.69,0-.23-.08-.69-.1-1.15-.17-2a77.28,77.28,0,0,1,0-7.83,103.1,103.1,0,0,1,5.63-28.17,90.64,90.64,0,0,1,3.62-8.84,65.15,65.15,0,0,1,5.28-8.92,86.08,86.08,0,0,1,15.89-16.36,68.82,68.82,0,0,1,10.34-6.78,75.36,75.36,0,0,1,11.92-4.93,87.74,87.74,0,0,1,26.76-3.91c9.28.07,18.4,1,26.81,3.58a74.36,74.36,0,0,1,22.56,11.16,68.55,68.55,0,0,1,8.84,7.76,54.06,54.06,0,0,1,6.87,8.71,59,59,0,0,1,4.83,9.16,71.13,71.13,0,0,1,3.17,9,85.49,85.49,0,0,1,2.83,16.16c.27,2.4.27,4.65.38,6.72s0,4,0,5.66-.15,3.21-.21,4.52-.19,2.4-.27,3.3-.14,1.55-.18,2S681.74,397.32,681.74,397.32Z" style="fill:#fff"></path><path d="M438.4,272.05l-.23,0-.68,0-2.61.06-9.59.17c-8.1.15-19.28.45-31.64.79s-23.55.57-31.65.63c-4.05,0-7.33,0-9.6,0l-2.61,0-.67,0a.64.64,0,0,1-.24,0,.75.75,0,0,1,.24,0l.67,0,2.61-.06,9.59-.17c8.1-.15,19.29-.45,31.65-.78s23.55-.58,31.65-.64c4,0,7.33,0,9.59,0l2.61,0,.68,0Z" style="fill:#fff"></path><path d="M425.14,287.08a72.38,72.38,0,0,1-8.76.26,72.38,72.38,0,0,1-8.76-.26,74.92,74.92,0,0,1,8.76-.26A74.92,74.92,0,0,1,425.14,287.08Z" style="fill:#fff"></path><path d="M428.36,233.57c.05.13-10.82,4.66-24.29,10.11s-24.43,9.77-24.49,9.63,10.82-4.66,24.29-10.11S428.3,233.44,428.36,233.57Z" style="fill:#fff"></path><path d="M406.32,237c.06.14-10.3,4.7-23.13,10.19s-23.27,9.84-23.33,9.71,10.3-4.69,23.13-10.19S406.26,236.85,406.32,237Z" style="fill:#fff"></path><path d="M546.08,231.68c.06.13-10.82,4.66-24.29,10.11s-24.43,9.76-24.49,9.63,10.82-4.66,24.3-10.11S546,231.54,546.08,231.68Z" style="fill:#fff"></path><path d="M524,235.09c.06.14-10.3,4.7-23.12,10.19s-23.28,9.84-23.34,9.71,10.3-4.69,23.13-10.19S524,235,524,235.09Z" style="fill:#fff"></path><path d="M548.21,272c0,.14-21.63.39-48.31.55s-48.31.17-48.31,0,21.62-.39,48.31-.54S548.21,271.89,548.21,272Z" style="fill:#fff"></path><path d="M572.16,286.25c0,.14-6.06.31-13.55.38s-13.55,0-13.55-.13,6.06-.32,13.55-.39S572.16,286.1,572.16,286.25Z" style="fill:#fff"></path><path d="M158,278.85a2.41,2.41,0,0,1-.59.12l-1.69.22c-.74.08-1.64.19-2.68.37s-2.23.31-3.53.57c-2.61.46-5.7,1.14-9.08,2a112.6,112.6,0,0,0-10.81,3.58c-3.76,1.49-7.25,3.12-10.37,4.73s-5.82,3.23-8,4.68c-1.13.69-2.11,1.39-3,2s-1.62,1.11-2.22,1.55l-1.39,1a3.1,3.1,0,0,1-.51.32,2.89,2.89,0,0,1,.44-.4l1.34-1.07c.58-.46,1.3-1,2.17-1.63s1.82-1.33,3-2c2.2-1.49,4.92-3.12,8-4.79a97.9,97.9,0,0,1,21.28-8.35c3.4-.88,6.51-1.53,9.14-1.94,1.31-.24,2.5-.36,3.55-.5s2-.23,2.69-.28l1.71-.13A3.9,3.9,0,0,1,158,278.85Z" style="fill:#fff"></path><path d="M336.58,255.26s-.29-.39-1-.93a6.66,6.66,0,0,0-3.3-1.33,14.25,14.25,0,0,0-5.34.57,41,41,0,0,0-16.53,8.51c-2.38,2-3.64,3.47-3.71,3.4a6.43,6.43,0,0,1,.84-1.06,35.27,35.27,0,0,1,2.62-2.62,38.35,38.35,0,0,1,10.28-6.56,37.1,37.1,0,0,1,6.39-2.13,14.17,14.17,0,0,1,5.5-.48,6.42,6.42,0,0,1,3.38,1.55,4.33,4.33,0,0,1,.67.76C336.54,255.14,336.6,255.25,336.58,255.26Z" style="fill:#fff"></path><path d="M658.54,228.85a16,16,0,0,1-4.26.44,27,27,0,0,1-5-.62,45.62,45.62,0,0,1-6.37-2c-2.31-.87-4.77-2-7.43-3.11l-4.15-1.67c-1.43-.57-2.94-1.06-4.46-1.62a174.28,174.28,0,0,0-20.38-5.55A234.5,234.5,0,0,0,568.41,210c-2.46-.13-4.68-.13-6.64-.18h-5l-3.16.07h-1.11a.75.75,0,0,1,.28,0l.82-.06,3.17-.17,5-.09c2,0,4.18,0,6.64.12a220.6,220.6,0,0,1,38.18,4.6A167.06,167.06,0,0,1,627,219.85c1.52.56,3,1.06,4.47,1.64l4.15,1.71c2.66,1.15,5.11,2.27,7.4,3.16a43.83,43.83,0,0,0,6.29,2,26.47,26.47,0,0,0,4.94.7,22.77,22.77,0,0,0,3.15-.11l.81-.1Z" style="fill:#263238"></path></g></svg>